<svg height="32px" width="32px" xmlns="http://www.w3.org/2000/svg" viewBox="0 0 100 100">
   <path d="M50 10 L50 10 Q50 20 60 20 Q70 20 70 10 L70 10 Q70 0 60 0 Q50 0 50 10 Z" fill="#60f"/>
   <path d="M50 20 L50 20 Q50 30 60 30 Q70 30 70 20 L70 20 Q70 10 60 10 Q50 10 50 20 Z" fill="#60f"/>
   <path d="M50 30 L50 30 Q50 40 60 40 Q70 40 70 30 L70 30 Q70 20 60 20 Q50 20 50 30 Z" fill="#60f"/>
   <path d="M50 40 L50 40 Q50 50 60 50 Q70 50 70 40 L70 40 Q70 30 60 30 Q50 30 50 40 Z" fill="#60f"/>
   <path d="M50 50 L50 50 Q50 60 60 60 Q70 60 70 50 L70 50 Q70 40 60 40 Q50 40 50 50 Z" fill="#60f"/>
</svg>